<mxfile host="app.diagrams.net" modified="2023-01-07T23:40:36.840Z" agent="5.0 (X11)" etag="FtVdyhG43HPjEaT7JIrh" version="20.8.3" type="github">
  <diagram id="JWPBLmmFshfTRWQKpwGe" name="Page-1">
    <mxGraphModel dx="2284" dy="789" grid="1" gridSize="10" guides="1" tooltips="1" connect="1" arrows="1" fold="1" page="1" pageScale="1" pageWidth="850" pageHeight="1100" math="0" shadow="0">
      <root>
        <mxCell id="0" />
        <mxCell id="1" parent="0" />
        <mxCell id="_ZrAJ8rJcdmDjaMm9Yq3-7" value="Orgchart" style="swimlane;startSize=20;horizontal=1;containerType=tree;newEdgeStyle={&quot;edgeStyle&quot;:&quot;elbowEdgeStyle&quot;,&quot;startArrow&quot;:&quot;none&quot;,&quot;endArrow&quot;:&quot;none&quot;};glass=0;gradientColor=none;movable=1;resizable=1;rotatable=1;deletable=1;editable=1;connectable=1;fontFamily=Comic Sans MS;" vertex="1" parent="1">
          <mxGeometry x="-570" y="42" width="1230" height="770" as="geometry">
            <mxRectangle x="50" y="60" width="90" height="30" as="alternateBounds" />
          </mxGeometry>
        </mxCell>
        <mxCell id="_ZrAJ8rJcdmDjaMm9Yq3-8" value="" style="edgeStyle=elbowEdgeStyle;elbow=vertical;sourcePerimeterSpacing=0;targetPerimeterSpacing=0;startArrow=none;endArrow=none;rounded=0;curved=0;sketch=1;curveFitting=1;jiggle=2;" edge="1" parent="_ZrAJ8rJcdmDjaMm9Yq3-7" source="_ZrAJ8rJcdmDjaMm9Yq3-10" target="_ZrAJ8rJcdmDjaMm9Yq3-11">
          <mxGeometry relative="1" as="geometry" />
        </mxCell>
        <mxCell id="_ZrAJ8rJcdmDjaMm9Yq3-9" value="" style="edgeStyle=elbowEdgeStyle;elbow=vertical;sourcePerimeterSpacing=0;targetPerimeterSpacing=0;startArrow=none;endArrow=none;rounded=0;curved=0;sketch=1;curveFitting=1;jiggle=2;" edge="1" parent="_ZrAJ8rJcdmDjaMm9Yq3-7" source="_ZrAJ8rJcdmDjaMm9Yq3-10" target="_ZrAJ8rJcdmDjaMm9Yq3-12">
          <mxGeometry relative="1" as="geometry" />
        </mxCell>
        <UserObject label="&lt;font style=&quot;font-size: 16px;&quot; face=&quot;Courier New&quot;&gt;Reproductiu&lt;/font&gt;" treeRoot="1" id="_ZrAJ8rJcdmDjaMm9Yq3-10">
          <mxCell style="whiteSpace=wrap;html=1;align=center;treeFolding=1;treeMoving=1;newEdgeStyle={&quot;edgeStyle&quot;:&quot;elbowEdgeStyle&quot;,&quot;startArrow&quot;:&quot;none&quot;,&quot;endArrow&quot;:&quot;none&quot;};fillColor=#fff2cc;strokeColor=#d6b656;gradientColor=none;fontStyle=0;fontSize=16;shadow=0;glass=0;rounded=0;fillStyle=solid;sketch=1;curveFitting=1;jiggle=2;" vertex="1" parent="_ZrAJ8rJcdmDjaMm9Yq3-7">
            <mxGeometry x="150" y="30" width="430" height="60" as="geometry" />
          </mxCell>
        </UserObject>
        <mxCell id="_ZrAJ8rJcdmDjaMm9Yq3-11" value="Persones i organització" style="whiteSpace=wrap;html=1;align=center;verticalAlign=middle;treeFolding=1;treeMoving=1;newEdgeStyle={&quot;edgeStyle&quot;:&quot;elbowEdgeStyle&quot;,&quot;startArrow&quot;:&quot;none&quot;,&quot;endArrow&quot;:&quot;none&quot;};fillColor=#e6d0de;strokeColor=#996185;gradientColor=#d5739d;sketch=1;curveFitting=1;jiggle=2;" vertex="1" parent="_ZrAJ8rJcdmDjaMm9Yq3-7">
          <mxGeometry x="130" y="145" width="100" height="60" as="geometry" />
        </mxCell>
        <mxCell id="_ZrAJ8rJcdmDjaMm9Yq3-12" value="Organització del treball" style="whiteSpace=wrap;html=1;align=center;verticalAlign=middle;treeFolding=1;treeMoving=1;newEdgeStyle={&quot;edgeStyle&quot;:&quot;elbowEdgeStyle&quot;,&quot;startArrow&quot;:&quot;none&quot;,&quot;endArrow&quot;:&quot;none&quot;};fillColor=#e6d0de;strokeColor=#996185;gradientColor=#d5739d;sketch=1;curveFitting=1;jiggle=2;" vertex="1" parent="_ZrAJ8rJcdmDjaMm9Yq3-7">
          <mxGeometry x="270" y="145" width="100" height="60" as="geometry" />
        </mxCell>
        <mxCell id="_ZrAJ8rJcdmDjaMm9Yq3-25" value="" style="edgeStyle=elbowEdgeStyle;elbow=vertical;sourcePerimeterSpacing=0;targetPerimeterSpacing=0;startArrow=none;endArrow=none;rounded=0;curved=0;sketch=1;curveFitting=1;jiggle=2;" edge="1" target="_ZrAJ8rJcdmDjaMm9Yq3-26" source="_ZrAJ8rJcdmDjaMm9Yq3-10" parent="_ZrAJ8rJcdmDjaMm9Yq3-7">
          <mxGeometry relative="1" as="geometry">
            <mxPoint x="320" y="270" as="sourcePoint" />
          </mxGeometry>
        </mxCell>
        <mxCell id="_ZrAJ8rJcdmDjaMm9Yq3-26" value="Comunicació i comunitat" style="whiteSpace=wrap;html=1;align=center;verticalAlign=middle;treeFolding=1;treeMoving=1;newEdgeStyle={&quot;edgeStyle&quot;:&quot;elbowEdgeStyle&quot;,&quot;startArrow&quot;:&quot;none&quot;,&quot;endArrow&quot;:&quot;none&quot;};fillColor=#e6d0de;strokeColor=#996185;gradientColor=#d5739d;sketch=1;curveFitting=1;jiggle=2;" vertex="1" parent="_ZrAJ8rJcdmDjaMm9Yq3-7">
          <mxGeometry x="380" y="145" width="100" height="60" as="geometry" />
        </mxCell>
        <mxCell id="_ZrAJ8rJcdmDjaMm9Yq3-27" value="" style="edgeStyle=elbowEdgeStyle;elbow=vertical;sourcePerimeterSpacing=0;targetPerimeterSpacing=0;startArrow=none;endArrow=none;rounded=0;curved=0;sketch=1;curveFitting=1;jiggle=2;" edge="1" target="_ZrAJ8rJcdmDjaMm9Yq3-28" source="_ZrAJ8rJcdmDjaMm9Yq3-10" parent="_ZrAJ8rJcdmDjaMm9Yq3-7">
          <mxGeometry relative="1" as="geometry">
            <mxPoint x="320" y="270" as="sourcePoint" />
          </mxGeometry>
        </mxCell>
        <mxCell id="_ZrAJ8rJcdmDjaMm9Yq3-28" value="Administració i finanzas" style="whiteSpace=wrap;html=1;align=center;verticalAlign=middle;treeFolding=1;treeMoving=1;newEdgeStyle={&quot;edgeStyle&quot;:&quot;elbowEdgeStyle&quot;,&quot;startArrow&quot;:&quot;none&quot;,&quot;endArrow&quot;:&quot;none&quot;};fillColor=#e6d0de;strokeColor=#996185;gradientColor=#d5739d;sketch=1;curveFitting=1;jiggle=2;" vertex="1" parent="_ZrAJ8rJcdmDjaMm9Yq3-7">
          <mxGeometry x="20" y="145" width="100" height="60" as="geometry" />
        </mxCell>
        <mxCell id="_ZrAJ8rJcdmDjaMm9Yq3-29" value="" style="edgeStyle=elbowEdgeStyle;elbow=vertical;sourcePerimeterSpacing=0;targetPerimeterSpacing=0;startArrow=none;endArrow=none;rounded=0;curved=0;sketch=1;curveFitting=1;jiggle=2;" edge="1" target="_ZrAJ8rJcdmDjaMm9Yq3-30" source="_ZrAJ8rJcdmDjaMm9Yq3-28" parent="_ZrAJ8rJcdmDjaMm9Yq3-7">
          <mxGeometry relative="1" as="geometry">
            <mxPoint x="190" y="165" as="sourcePoint" />
          </mxGeometry>
        </mxCell>
        <mxCell id="_ZrAJ8rJcdmDjaMm9Yq3-30" value="Protecció de dades" style="whiteSpace=wrap;html=1;align=center;verticalAlign=middle;treeFolding=1;treeMoving=1;newEdgeStyle={&quot;edgeStyle&quot;:&quot;elbowEdgeStyle&quot;,&quot;startArrow&quot;:&quot;none&quot;,&quot;endArrow&quot;:&quot;none&quot;};fillColor=#f5f5f5;gradientColor=#b3b3b3;strokeColor=#666666;sketch=1;curveFitting=1;jiggle=2;rounded=1;" vertex="1" parent="_ZrAJ8rJcdmDjaMm9Yq3-7">
          <mxGeometry x="20" y="245" width="100" height="35" as="geometry" />
        </mxCell>
        <mxCell id="_ZrAJ8rJcdmDjaMm9Yq3-31" value="" style="edgeStyle=elbowEdgeStyle;elbow=vertical;sourcePerimeterSpacing=0;targetPerimeterSpacing=0;startArrow=none;endArrow=none;rounded=0;curved=0;sketch=1;curveFitting=1;jiggle=2;" edge="1" target="_ZrAJ8rJcdmDjaMm9Yq3-32" source="_ZrAJ8rJcdmDjaMm9Yq3-11" parent="_ZrAJ8rJcdmDjaMm9Yq3-7">
          <mxGeometry relative="1" as="geometry">
            <mxPoint x="190" y="165" as="sourcePoint" />
          </mxGeometry>
        </mxCell>
        <mxCell id="_ZrAJ8rJcdmDjaMm9Yq3-32" value="Formació" style="whiteSpace=wrap;html=1;align=center;verticalAlign=middle;treeFolding=1;treeMoving=1;newEdgeStyle={&quot;edgeStyle&quot;:&quot;elbowEdgeStyle&quot;,&quot;startArrow&quot;:&quot;none&quot;,&quot;endArrow&quot;:&quot;none&quot;};fillColor=#f5f5f5;gradientColor=#b3b3b3;strokeColor=#666666;sketch=1;curveFitting=1;jiggle=2;rounded=1;" vertex="1" parent="_ZrAJ8rJcdmDjaMm9Yq3-7">
          <mxGeometry x="130" y="245" width="100" height="35" as="geometry" />
        </mxCell>
        <mxCell id="_ZrAJ8rJcdmDjaMm9Yq3-33" value="" style="edgeStyle=elbowEdgeStyle;elbow=vertical;sourcePerimeterSpacing=0;targetPerimeterSpacing=0;startArrow=none;endArrow=none;rounded=0;curved=0;sketch=1;curveFitting=1;jiggle=2;" edge="1" target="_ZrAJ8rJcdmDjaMm9Yq3-34" source="_ZrAJ8rJcdmDjaMm9Yq3-11" parent="_ZrAJ8rJcdmDjaMm9Yq3-7">
          <mxGeometry relative="1" as="geometry">
            <mxPoint x="120" y="265" as="sourcePoint" />
          </mxGeometry>
        </mxCell>
        <mxCell id="_ZrAJ8rJcdmDjaMm9Yq3-34" value="Antiacoso" style="whiteSpace=wrap;html=1;align=center;verticalAlign=middle;treeFolding=1;treeMoving=1;newEdgeStyle={&quot;edgeStyle&quot;:&quot;elbowEdgeStyle&quot;,&quot;startArrow&quot;:&quot;none&quot;,&quot;endArrow&quot;:&quot;none&quot;};fillColor=#f5f5f5;gradientColor=#b3b3b3;strokeColor=#666666;sketch=1;curveFitting=1;jiggle=2;rounded=1;" vertex="1" parent="_ZrAJ8rJcdmDjaMm9Yq3-7">
          <mxGeometry x="240" y="245" width="100" height="35" as="geometry" />
        </mxCell>
        <mxCell id="_ZrAJ8rJcdmDjaMm9Yq3-59" value="" style="edgeStyle=elbowEdgeStyle;elbow=vertical;sourcePerimeterSpacing=0;targetPerimeterSpacing=0;startArrow=none;endArrow=none;rounded=0;curved=0;sketch=1;curveFitting=1;jiggle=2;" edge="1" target="_ZrAJ8rJcdmDjaMm9Yq3-60" source="_ZrAJ8rJcdmDjaMm9Yq3-26" parent="_ZrAJ8rJcdmDjaMm9Yq3-7">
          <mxGeometry relative="1" as="geometry">
            <mxPoint x="225" y="125" as="sourcePoint" />
          </mxGeometry>
        </mxCell>
        <mxCell id="_ZrAJ8rJcdmDjaMm9Yq3-60" value="IT Cooperatiu" style="whiteSpace=wrap;html=1;align=center;verticalAlign=middle;treeFolding=1;treeMoving=1;newEdgeStyle={&quot;edgeStyle&quot;:&quot;elbowEdgeStyle&quot;,&quot;startArrow&quot;:&quot;none&quot;,&quot;endArrow&quot;:&quot;none&quot;};fillColor=#f5f5f5;gradientColor=#b3b3b3;strokeColor=#666666;sketch=1;curveFitting=1;jiggle=2;rounded=1;" vertex="1" parent="_ZrAJ8rJcdmDjaMm9Yq3-7">
          <mxGeometry x="380" y="245" width="100" height="35" as="geometry" />
        </mxCell>
        <mxCell id="_ZrAJ8rJcdmDjaMm9Yq3-90" value="&lt;font style=&quot;font-size: 14px;&quot;&gt;I + D&lt;/font&gt;" style="whiteSpace=wrap;html=1;align=center;verticalAlign=middle;treeFolding=1;treeMoving=1;newEdgeStyle={&quot;edgeStyle&quot;:&quot;elbowEdgeStyle&quot;,&quot;startArrow&quot;:&quot;none&quot;,&quot;endArrow&quot;:&quot;none&quot;};sketch=1;curveFitting=1;jiggle=2;fillColor=#fff2cc;gradientColor=#ffd966;strokeColor=#d6b656;movable=1;resizable=1;rotatable=1;deletable=1;editable=1;connectable=1;" vertex="1" parent="_ZrAJ8rJcdmDjaMm9Yq3-7">
          <mxGeometry x="520" y="100" width="170" height="80" as="geometry" />
        </mxCell>
        <mxCell id="_ZrAJ8rJcdmDjaMm9Yq3-62" value="" style="edgeStyle=elbowEdgeStyle;elbow=vertical;targetPerimeterSpacing=0;startArrow=none;endArrow=none;rounded=0;curved=0;sketch=1;curveFitting=1;jiggle=2;entryX=0.23;entryY=1;entryDx=0;entryDy=0;entryPerimeter=0;" edge="1" parent="_ZrAJ8rJcdmDjaMm9Yq3-7" source="_ZrAJ8rJcdmDjaMm9Yq3-90" target="_ZrAJ8rJcdmDjaMm9Yq3-128">
          <mxGeometry relative="1" as="geometry">
            <mxPoint x="600" y="160" as="sourcePoint" />
            <mxPoint x="690" y="380" as="targetPoint" />
            <Array as="points">
              <mxPoint x="720" y="140" />
              <mxPoint x="610" y="120" />
              <mxPoint x="700" y="150" />
              <mxPoint x="680" y="160" />
            </Array>
          </mxGeometry>
        </mxCell>
        <mxCell id="_ZrAJ8rJcdmDjaMm9Yq3-61" value="" style="edgeStyle=elbowEdgeStyle;elbow=vertical;sourcePerimeterSpacing=0;targetPerimeterSpacing=0;startArrow=none;endArrow=none;rounded=0;curved=0;sketch=1;curveFitting=1;jiggle=2;entryX=0.813;entryY=1.033;entryDx=0;entryDy=0;entryPerimeter=0;exitX=0;exitY=0.5;exitDx=0;exitDy=0;" edge="1" parent="_ZrAJ8rJcdmDjaMm9Yq3-7" source="_ZrAJ8rJcdmDjaMm9Yq3-90" target="_ZrAJ8rJcdmDjaMm9Yq3-10">
          <mxGeometry relative="1" as="geometry">
            <mxPoint x="600" y="190" as="sourcePoint" />
            <mxPoint x="670" y="260" as="targetPoint" />
            <Array as="points">
              <mxPoint x="470" y="140" />
              <mxPoint x="540" y="120" />
              <mxPoint x="510" y="150" />
            </Array>
          </mxGeometry>
        </mxCell>
        <mxCell id="_ZrAJ8rJcdmDjaMm9Yq3-92" value="" style="edgeStyle=elbowEdgeStyle;rounded=0;sketch=1;orthogonalLoop=1;jettySize=auto;html=1;elbow=vertical;startArrow=none;endArrow=none;" edge="1" source="_ZrAJ8rJcdmDjaMm9Yq3-90" target="_ZrAJ8rJcdmDjaMm9Yq3-93" parent="_ZrAJ8rJcdmDjaMm9Yq3-7">
          <mxGeometry relative="1" as="geometry" />
        </mxCell>
        <mxCell id="_ZrAJ8rJcdmDjaMm9Yq3-93" value="Sysadmin" style="whiteSpace=wrap;html=1;align=center;verticalAlign=middle;treeFolding=1;treeMoving=1;newEdgeStyle={&quot;edgeStyle&quot;:&quot;elbowEdgeStyle&quot;,&quot;startArrow&quot;:&quot;none&quot;,&quot;endArrow&quot;:&quot;none&quot;};sketch=1;curveFitting=1;jiggle=2;fillColor=#e6d0de;gradientColor=#d5739d;strokeColor=#996185;" vertex="1" parent="_ZrAJ8rJcdmDjaMm9Yq3-7">
          <mxGeometry x="520" y="330" width="170" height="40" as="geometry" />
        </mxCell>
        <mxCell id="_ZrAJ8rJcdmDjaMm9Yq3-94" value="" style="edgeStyle=elbowEdgeStyle;rounded=0;sketch=1;orthogonalLoop=1;jettySize=auto;html=1;elbow=vertical;startArrow=none;endArrow=none;" edge="1" target="_ZrAJ8rJcdmDjaMm9Yq3-95" source="_ZrAJ8rJcdmDjaMm9Yq3-90" parent="_ZrAJ8rJcdmDjaMm9Yq3-7">
          <mxGeometry relative="1" as="geometry">
            <mxPoint x="-5" y="250" as="sourcePoint" />
            <Array as="points">
              <mxPoint x="605" y="320" />
            </Array>
          </mxGeometry>
        </mxCell>
        <mxCell id="_ZrAJ8rJcdmDjaMm9Yq3-95" value="Odoo" style="whiteSpace=wrap;html=1;align=center;verticalAlign=middle;treeFolding=1;treeMoving=1;newEdgeStyle={&quot;edgeStyle&quot;:&quot;elbowEdgeStyle&quot;,&quot;startArrow&quot;:&quot;none&quot;,&quot;endArrow&quot;:&quot;none&quot;};sketch=1;curveFitting=1;jiggle=2;fillColor=#e6d0de;gradientColor=#d5739d;strokeColor=#996185;" vertex="1" parent="_ZrAJ8rJcdmDjaMm9Yq3-7">
          <mxGeometry x="340" y="330" width="140" height="40" as="geometry" />
        </mxCell>
        <mxCell id="_ZrAJ8rJcdmDjaMm9Yq3-96" value="" style="edgeStyle=elbowEdgeStyle;rounded=0;sketch=1;orthogonalLoop=1;jettySize=auto;html=1;elbow=vertical;startArrow=none;endArrow=none;entryX=0.394;entryY=-0.037;entryDx=0;entryDy=0;entryPerimeter=0;" edge="1" target="_ZrAJ8rJcdmDjaMm9Yq3-97" source="_ZrAJ8rJcdmDjaMm9Yq3-90" parent="_ZrAJ8rJcdmDjaMm9Yq3-7">
          <mxGeometry relative="1" as="geometry">
            <mxPoint x="-5" y="250" as="sourcePoint" />
            <Array as="points">
              <mxPoint x="710" y="320" />
            </Array>
          </mxGeometry>
        </mxCell>
        <mxCell id="_ZrAJ8rJcdmDjaMm9Yq3-97" value="BI" style="whiteSpace=wrap;html=1;align=center;verticalAlign=middle;treeFolding=1;treeMoving=1;newEdgeStyle={&quot;edgeStyle&quot;:&quot;elbowEdgeStyle&quot;,&quot;startArrow&quot;:&quot;none&quot;,&quot;endArrow&quot;:&quot;none&quot;};sketch=1;curveFitting=1;jiggle=2;fillColor=#e6d0de;gradientColor=#d5739d;strokeColor=#996185;" vertex="1" parent="_ZrAJ8rJcdmDjaMm9Yq3-7">
          <mxGeometry x="720" y="330" width="150" height="40" as="geometry" />
        </mxCell>
        <mxCell id="_ZrAJ8rJcdmDjaMm9Yq3-110" style="edgeStyle=elbowEdgeStyle;rounded=0;sketch=1;orthogonalLoop=1;jettySize=auto;html=1;startArrow=none;endArrow=none;exitX=0;exitY=1;exitDx=0;exitDy=0;fontSize=14;" edge="1" parent="_ZrAJ8rJcdmDjaMm9Yq3-7" source="_ZrAJ8rJcdmDjaMm9Yq3-97" target="_ZrAJ8rJcdmDjaMm9Yq3-97">
          <mxGeometry relative="1" as="geometry" />
        </mxCell>
        <UserObject label="Agro" treeRoot="1" id="_ZrAJ8rJcdmDjaMm9Yq3-126">
          <mxCell style="whiteSpace=wrap;html=1;align=center;treeFolding=1;treeMoving=1;newEdgeStyle={&quot;edgeStyle&quot;:&quot;elbowEdgeStyle&quot;,&quot;startArrow&quot;:&quot;none&quot;,&quot;endArrow&quot;:&quot;none&quot;};fillColor=#e6d0de;strokeColor=#996185;gradientColor=#d5739d;fontStyle=0;fontSize=14;sketch=1;curveFitting=1;jiggle=2;shadow=0;glass=0;rounded=0;fillStyle=auto;" vertex="1" parent="_ZrAJ8rJcdmDjaMm9Yq3-7">
            <mxGeometry x="610" y="460" width="110" height="60" as="geometry" />
          </mxCell>
        </UserObject>
        <mxCell id="_ZrAJ8rJcdmDjaMm9Yq3-127" value="" style="edgeStyle=elbowEdgeStyle;elbow=vertical;targetPerimeterSpacing=0;startArrow=none;endArrow=none;rounded=0;curved=0;sketch=1;curveFitting=1;jiggle=2;exitX=0.75;exitY=1;exitDx=0;exitDy=0;" edge="1" target="_ZrAJ8rJcdmDjaMm9Yq3-126" source="_ZrAJ8rJcdmDjaMm9Yq3-128" parent="_ZrAJ8rJcdmDjaMm9Yq3-7">
          <mxGeometry relative="1" as="geometry">
            <mxPoint x="120" y="180" as="sourcePoint" />
            <mxPoint x="690" y="380" as="targetPoint" />
            <Array as="points">
              <mxPoint x="880" y="420" />
              <mxPoint x="150" y="180" />
              <mxPoint x="40" y="160" />
              <mxPoint x="130" y="190" />
              <mxPoint x="110" y="200" />
            </Array>
          </mxGeometry>
        </mxCell>
        <UserObject label="&lt;font style=&quot;font-size: 16px;&quot; face=&quot;Courier New&quot;&gt;Productiu&lt;/font&gt;" treeRoot="1" id="_ZrAJ8rJcdmDjaMm9Yq3-128">
          <mxCell style="whiteSpace=wrap;html=1;align=center;treeFolding=1;treeMoving=1;newEdgeStyle={&quot;edgeStyle&quot;:&quot;elbowEdgeStyle&quot;,&quot;startArrow&quot;:&quot;none&quot;,&quot;endArrow&quot;:&quot;none&quot;};fillColor=#fff2cc;strokeColor=#d6b656;gradientColor=none;fontStyle=0;fontSize=14;sketch=1;curveFitting=1;jiggle=2;shadow=0;glass=0;rounded=0;fillStyle=solid;" vertex="1" parent="_ZrAJ8rJcdmDjaMm9Yq3-7">
            <mxGeometry x="610" y="30" width="410" height="60" as="geometry" />
          </mxCell>
        </UserObject>
        <mxCell id="_ZrAJ8rJcdmDjaMm9Yq3-129" value="" style="edgeStyle=elbowEdgeStyle;elbow=vertical;targetPerimeterSpacing=0;startArrow=none;endArrow=none;rounded=0;curved=0;sketch=1;curveFitting=1;jiggle=2;entryX=0.5;entryY=0;entryDx=0;entryDy=0;exitX=0.75;exitY=1;exitDx=0;exitDy=0;" edge="1" target="_ZrAJ8rJcdmDjaMm9Yq3-130" source="_ZrAJ8rJcdmDjaMm9Yq3-128" parent="_ZrAJ8rJcdmDjaMm9Yq3-7">
          <mxGeometry relative="1" as="geometry">
            <mxPoint x="120" y="180" as="sourcePoint" />
            <mxPoint x="690" y="380" as="targetPoint" />
            <Array as="points">
              <mxPoint x="1000" y="420" />
              <mxPoint x="1040" y="440" />
              <mxPoint x="40" y="160" />
              <mxPoint x="130" y="190" />
              <mxPoint x="110" y="200" />
            </Array>
          </mxGeometry>
        </mxCell>
        <UserObject label="Productiu" treeRoot="1" id="_ZrAJ8rJcdmDjaMm9Yq3-130">
          <mxCell style="whiteSpace=wrap;html=1;align=center;treeFolding=1;treeMoving=1;newEdgeStyle={&quot;edgeStyle&quot;:&quot;elbowEdgeStyle&quot;,&quot;startArrow&quot;:&quot;none&quot;,&quot;endArrow&quot;:&quot;none&quot;};fillColor=#e6d0de;strokeColor=#996185;gradientColor=#d5739d;fontStyle=0;fontSize=14;sketch=1;curveFitting=1;jiggle=2;shadow=0;glass=0;rounded=0;fillStyle=auto;" vertex="1" parent="_ZrAJ8rJcdmDjaMm9Yq3-7">
            <mxGeometry x="740" y="460" width="100" height="60" as="geometry" />
          </mxCell>
        </UserObject>
        <mxCell id="_ZrAJ8rJcdmDjaMm9Yq3-131" value="" style="edgeStyle=elbowEdgeStyle;elbow=vertical;targetPerimeterSpacing=0;startArrow=none;endArrow=none;rounded=0;curved=0;sketch=1;curveFitting=1;jiggle=2;entryX=0.5;entryY=0;entryDx=0;entryDy=0;exitX=0.75;exitY=1;exitDx=0;exitDy=0;" edge="1" target="_ZrAJ8rJcdmDjaMm9Yq3-132" source="_ZrAJ8rJcdmDjaMm9Yq3-128" parent="_ZrAJ8rJcdmDjaMm9Yq3-7">
          <mxGeometry relative="1" as="geometry">
            <mxPoint x="880" y="90" as="sourcePoint" />
            <mxPoint x="690" y="380" as="targetPoint" />
            <Array as="points">
              <mxPoint x="910" y="420" />
              <mxPoint x="910" y="460" />
              <mxPoint x="150" y="180" />
              <mxPoint x="40" y="160" />
              <mxPoint x="130" y="190" />
              <mxPoint x="110" y="200" />
            </Array>
          </mxGeometry>
        </mxCell>
        <UserObject label="Productiu" treeRoot="1" id="_ZrAJ8rJcdmDjaMm9Yq3-132">
          <mxCell style="whiteSpace=wrap;html=1;align=center;treeFolding=1;treeMoving=1;newEdgeStyle={&quot;edgeStyle&quot;:&quot;elbowEdgeStyle&quot;,&quot;startArrow&quot;:&quot;none&quot;,&quot;endArrow&quot;:&quot;none&quot;};fillColor=#e6d0de;strokeColor=#996185;gradientColor=#d5739d;fontStyle=0;fontSize=14;sketch=1;curveFitting=1;jiggle=2;shadow=0;glass=0;rounded=0;fillStyle=auto;" vertex="1" parent="_ZrAJ8rJcdmDjaMm9Yq3-7">
            <mxGeometry x="1020" y="440" width="110" height="60" as="geometry" />
          </mxCell>
        </UserObject>
        <mxCell id="_ZrAJ8rJcdmDjaMm9Yq3-134" value="" style="edgeStyle=elbowEdgeStyle;elbow=vertical;targetPerimeterSpacing=0;startArrow=none;endArrow=none;rounded=0;curved=0;sketch=1;curveFitting=1;jiggle=2;entryX=0.23;entryY=1;entryDx=0;entryDy=0;entryPerimeter=0;exitX=0.75;exitY=1;exitDx=0;exitDy=0;" edge="1" target="_ZrAJ8rJcdmDjaMm9Yq3-135" source="_ZrAJ8rJcdmDjaMm9Yq3-128" parent="_ZrAJ8rJcdmDjaMm9Yq3-7">
          <mxGeometry relative="1" as="geometry">
            <mxPoint x="120" y="180" as="sourcePoint" />
            <mxPoint x="690" y="380" as="targetPoint" />
            <Array as="points">
              <mxPoint x="918" y="420" />
              <mxPoint x="1100" y="580" />
              <mxPoint x="150" y="180" />
              <mxPoint x="40" y="160" />
              <mxPoint x="130" y="190" />
              <mxPoint x="110" y="200" />
            </Array>
          </mxGeometry>
        </mxCell>
        <UserObject label="Productiu" treeRoot="1" id="_ZrAJ8rJcdmDjaMm9Yq3-135">
          <mxCell style="whiteSpace=wrap;html=1;align=center;treeFolding=1;treeMoving=1;newEdgeStyle={&quot;edgeStyle&quot;:&quot;elbowEdgeStyle&quot;,&quot;startArrow&quot;:&quot;none&quot;,&quot;endArrow&quot;:&quot;none&quot;};fillColor=#e6d0de;strokeColor=#996185;gradientColor=#d5739d;fontStyle=0;fontSize=14;sketch=1;curveFitting=1;jiggle=2;shadow=0;glass=0;rounded=0;fillStyle=auto;" vertex="1" parent="_ZrAJ8rJcdmDjaMm9Yq3-7">
            <mxGeometry x="865" y="460" width="130" height="60" as="geometry" />
          </mxCell>
        </UserObject>
        <mxCell id="_ZrAJ8rJcdmDjaMm9Yq3-136" value="" style="edgeStyle=elbowEdgeStyle;elbow=vertical;targetPerimeterSpacing=0;startArrow=none;endArrow=none;rounded=0;curved=0;sketch=1;curveFitting=1;jiggle=2;exitX=0.75;exitY=1;exitDx=0;exitDy=0;" edge="1" target="_ZrAJ8rJcdmDjaMm9Yq3-137" source="_ZrAJ8rJcdmDjaMm9Yq3-126" parent="_ZrAJ8rJcdmDjaMm9Yq3-7">
          <mxGeometry relative="1" as="geometry">
            <mxPoint x="347.5" y="130" as="sourcePoint" />
            <mxPoint x="690" y="380" as="targetPoint" />
            <Array as="points">
              <mxPoint x="680" y="530" />
              <mxPoint x="310" y="460" />
              <mxPoint x="-420" y="220" />
              <mxPoint x="-530" y="200" />
              <mxPoint x="-440" y="230" />
              <mxPoint x="-460" y="240" />
            </Array>
          </mxGeometry>
        </mxCell>
        <UserObject label="* Agranel&lt;br&gt;* Agresta&lt;br&gt;* Aresta&lt;br&gt;* Artiga&lt;br&gt;* Bibaardoak&lt;br&gt;* Foodcoop&lt;br&gt;* La feixa&lt;br&gt;*Lakari" treeRoot="1" id="_ZrAJ8rJcdmDjaMm9Yq3-137">
          <mxCell style="whiteSpace=wrap;html=1;align=center;treeFolding=1;treeMoving=1;newEdgeStyle={&quot;edgeStyle&quot;:&quot;elbowEdgeStyle&quot;,&quot;startArrow&quot;:&quot;none&quot;,&quot;endArrow&quot;:&quot;none&quot;};fillColor=#dae8fc;strokeColor=#6c8ebf;gradientColor=#7ea6e0;fontStyle=0;fontSize=14;sketch=1;curveFitting=1;jiggle=2;shadow=0;glass=0;rounded=0;fillStyle=auto;" vertex="1" parent="_ZrAJ8rJcdmDjaMm9Yq3-7">
            <mxGeometry x="600" y="560" width="120" height="170" as="geometry" />
          </mxCell>
        </UserObject>
        <mxCell id="_ZrAJ8rJcdmDjaMm9Yq3-138" value="" style="edgeStyle=elbowEdgeStyle;elbow=vertical;targetPerimeterSpacing=0;startArrow=none;endArrow=none;rounded=0;curved=0;sketch=1;curveFitting=1;jiggle=2;entryX=0.5;entryY=0;entryDx=0;entryDy=0;exitX=0.5;exitY=1;exitDx=0;exitDy=0;" edge="1" target="_ZrAJ8rJcdmDjaMm9Yq3-139" source="_ZrAJ8rJcdmDjaMm9Yq3-130" parent="_ZrAJ8rJcdmDjaMm9Yq3-7">
          <mxGeometry relative="1" as="geometry">
            <mxPoint x="347.5" y="130" as="sourcePoint" />
            <mxPoint x="690" y="380" as="targetPoint" />
            <Array as="points">
              <mxPoint x="780" y="540" />
              <mxPoint x="470" y="480" />
              <mxPoint x="-530" y="200" />
              <mxPoint x="-440" y="230" />
              <mxPoint x="-460" y="240" />
            </Array>
          </mxGeometry>
        </mxCell>
        <UserObject label="* Agranel&lt;br&gt;* Agresta&lt;br&gt;* Aresta&lt;br&gt;* Artiga&lt;br&gt;* Bibaardoak&lt;br&gt;* Foodcoop&lt;br&gt;* La feixa&lt;br&gt;*Lakari" treeRoot="1" id="_ZrAJ8rJcdmDjaMm9Yq3-139">
          <mxCell style="whiteSpace=wrap;html=1;align=center;treeFolding=1;treeMoving=1;newEdgeStyle={&quot;edgeStyle&quot;:&quot;elbowEdgeStyle&quot;,&quot;startArrow&quot;:&quot;none&quot;,&quot;endArrow&quot;:&quot;none&quot;};fillColor=#dae8fc;strokeColor=#6c8ebf;gradientColor=#7ea6e0;fontStyle=0;fontSize=14;sketch=1;curveFitting=1;jiggle=2;shadow=0;glass=0;rounded=0;fillStyle=auto;" vertex="1" parent="_ZrAJ8rJcdmDjaMm9Yq3-7">
            <mxGeometry x="750" y="560" width="90" height="170" as="geometry" />
          </mxCell>
        </UserObject>
      </root>
    </mxGraphModel>
  </diagram>
</mxfile>
